<?xml version="1.0" encoding="UTF-8" standalone="no"?>
<!-- Created with Inkscape (http://www.inkscape.org/) -->

<svg
   xmlns:dc="http://purl.org/dc/elements/1.1/"
   xmlns:cc="http://creativecommons.org/ns#"
   xmlns:rdf="http://www.w3.org/1999/02/22-rdf-syntax-ns#"
   xmlns:svg="http://www.w3.org/2000/svg"
   xmlns="http://www.w3.org/2000/svg"
   xmlns:sodipodi="http://sodipodi.sourceforge.net/DTD/sodipodi-0.dtd"
   xmlns:inkscape="http://www.inkscape.org/namespaces/inkscape"
   width="44.449295mm"
   height="16.652351mm"
   viewBox="0 0 157.4975 59.004394"
   id="svg3967"
   version="1.1"
   inkscape:version="0.91 r13725"
   sodipodi:docname="NAND.svg">
  <defs
     id="defs3969" />
  <sodipodi:namedview
     id="base"
     pagecolor="#ffffff"
     bordercolor="#666666"
     borderopacity="1.0"
     inkscape:pageopacity="0.0"
     inkscape:pageshadow="2"
     inkscape:zoom="12.068273"
     inkscape:cx="74.780686"
     inkscape:cy="38.007829"
     inkscape:document-units="px"
     inkscape:current-layer="layer1"
     showgrid="false"
     fit-margin-top="0"
     fit-margin-left="0"
     fit-margin-right="0"
     fit-margin-bottom="0"
     inkscape:window-width="1920"
     inkscape:window-height="1017"
     inkscape:window-x="-8"
     inkscape:window-y="-8"
     inkscape:window-maximized="1" />
  <metadata
     id="metadata3972">
    <rdf:RDF>
      <cc:Work
         rdf:about="">
        <dc:format>image/svg+xml</dc:format>
        <dc:type
           rdf:resource="http://purl.org/dc/dcmitype/StillImage" />
        <dc:title></dc:title>
      </cc:Work>
    </rdf:RDF>
  </metadata>
  <g
     inkscape:label="Camada 1"
     inkscape:groupmode="layer"
     id="layer1"
     transform="translate(-203.3302,-609.07897)">
    <path
       d="m 251.9927,622.91702 -48.6625,0"
       class="st2"
       id="path3349"
       inkscape:connector-curvature="0"
       style="stroke:#000000;stroke-width:2.43479991;stroke-linecap:butt" />
    <path
       d="m 251.9927,655.09077 -48.6625,0"
       class="st2"
       id="path3356"
       inkscape:connector-curvature="0"
       style="stroke:#000000;stroke-width:2.43479991;stroke-linecap:butt" />
    <path
       d="m 251.6252,610.31327 c 15.625,0.125 31.2875,-0.375 46.9,0.6375 6.7375,1.1 9.55,2.9375 13.55,6.675 6.4625,6.275 8.8,16.0375 8.0375,24.6625 -0.45,6.6875 -3.675,14.0625 -9.4375,18.4875 -3.375,2.5625 -7.25,4.1625 -12.2875,5.0375 -9.4125,1.25 -18.9375,0.7125 -28.4125,0.8875 -6.1125,0 -12.2375,0 -18.35,0.1375 0,-18.8375 0,-37.675 0,-56.525 z"
       class="st3"
       id="path3361"
       inkscape:connector-curvature="0"
       style="fill:none;stroke:#0000a9;stroke-width:2.43479991;stroke-linecap:butt" />
    <path
       d="m 360.8277,638.26702 -31.6625,0"
       class="st2"
       id="path3368"
       inkscape:connector-curvature="0"
       style="stroke:#000000;stroke-width:2.43479991;stroke-linecap:butt" />
    <path
       d="m 329.6627,638.56827 a 4.150425,4.30415 0 1 1 -8.3,0 4.150425,4.30415 0 1 1 8.3,0 z"
       class="st4"
       id="path3373"
       inkscape:connector-curvature="0"
       style="fill:none;stroke:#0000a9;stroke-width:2.43478751;stroke-linecap:butt" />
  </g>
</svg>
