<?xml version="1.0"?><svg width="135" height="135" xmlns="http://www.w3.org/2000/svg" xmlns:xlink="http://www.w3.org/1999/xlink">
 <title>red-button_marco</title>
 <defs>
  <linearGradient id="linearGradient3234">
   <stop stop-color="#c7c7c7" stop-opacity="0.654088" offset="0" id="stop3236"/>
   <stop stop-color="#ffffff" stop-opacity="0" offset="1" id="stop3238"/>
  </linearGradient>
  <linearGradient id="linearGradient3215">
   <stop stop-color="#1a1a1a" stop-opacity="0.685535" id="stop3217" offset="0"/>
   <stop stop-color="#1a1a1a" stop-opacity="0" id="stop3219" offset="1"/>
  </linearGradient>
  <linearGradient id="linearGradient3203">
   <stop stop-color="#f9f9f9" stop-opacity="0.528302" id="stop3205" offset="0"/>
   <stop stop-color="#737373" stop-opacity="0.446541" id="stop3207" offset="1"/>
  </linearGradient>
  <radialGradient r="67.322754" fy="398.35724" fx="344.65146" cy="398.35724" cx="344.65146" gradientTransform="matrix(0.994321, 0.964613, -1.05606, 1.08859, 101.089, -730.422)" gradientUnits="userSpaceOnUse" id="radialGradient2228" xlink:href="#linearGradient3215"/>
  <radialGradient r="67.322754" fy="505.44727" fx="348.69501" cy="505.44727" cx="348.69501" gradientTransform="matrix(0.504145, 0.504145, -1.07245, 1.07245, 276.556, -565.292)" gradientUnits="userSpaceOnUse" id="radialGradient2230" xlink:href="#linearGradient3234"/>
  <linearGradient y2="0.263968" x2="0.947215" y1="1.083984" x1="-0.105402" id="linearGradient2232" xlink:href="#linearGradient3203"/>
  <radialGradient r="68.158737" fy="387.57217" fx="310.87253" cy="387.57217" cx="310.87253" gradientTransform="matrix(0.777169, 0, 0, 0.777169, -135.94, -83.7825)" gradientUnits="userSpaceOnUse" id="radialGradient2234" xlink:href="#linearGradient3234"/>
  <radialGradient r="68.158737" fy="465.10486" fx="308.52896" cy="465.10486" cx="308.52896" gradientTransform="matrix(0.777169, 0, 0, 0.777169, -135.94, -83.7825)" gradientUnits="userSpaceOnUse" id="radialGradient2236" xlink:href="#linearGradient3215"/>
 </defs>
 <metadata id="metadata7">image/svg+xmlpowerbutton, 2-stateswebmichl2007-05-02</metadata>
 <g>
  <title>Layer 1</title>
  <g display="inline" id="layer2"/>
  <g id="layer3"/>
  <path opacity="0.99" fill="#f2f2f2" fill-opacity="0.14486" stroke-linejoin="round" stroke-miterlimit="4" stroke-opacity="0.528038" id="path3256" d="m132.322891,67.499817a64.822746,64.822746 0 1 1 -129.645511,0a64.822746,64.822746 0 1 1 129.645511,0z"/>
  <path opacity="0.99" fill="url(#radialGradient2228)" stroke-width="5" stroke-linejoin="round" stroke-miterlimit="4" stroke-opacity="0.528038" id="path2226" d="m132.322891,67.499817a64.822746,64.822746 0 1 1 -129.645511,0a64.822746,64.822746 0 1 1 129.645511,0z"/>
  <path opacity="0.99" fill="url(#radialGradient2230)" stroke="url(#linearGradient2232)" stroke-linejoin="round" stroke-miterlimit="4" stroke-opacity="0.528038" d="m132.322891,67.499817a64.822746,64.822746 0 1 1 -129.645511,0a64.822746,64.822746 0 1 1 129.645511,0z" id="path3232"/>
  <path opacity="0.99" fill="url(#radialGradient2234)" stroke="#000000" stroke-width="2.668785" stroke-linejoin="round" stroke-miterlimit="4" id="path3201" d="m116.078796,67.500076a48.578491,48.578491 0 1 1 -97.156996,0a48.578491,48.578491 0 1 1 97.156996,0z"/>
  <path opacity="0.99" fill="url(#radialGradient2236)" stroke-width="2.668785" stroke-linejoin="round" stroke-miterlimit="4" d="m116.078796,67.500076a48.578491,48.578491 0 1 1 -97.156996,0a48.578491,48.578491 0 1 1 97.156996,0z" id="path3252"/>
  <path opacity="0.99" fill="#ffffff" stroke-width="0.5" stroke-linecap="round" stroke-linejoin="round" stroke-miterlimit="4" id="path3281" d="m51.366581,50.10733c-1.17543,0.022308 -2.281551,0.56052 -3.02449,1.471649c-7.83873,9.341831 -7.83873,22.861908 0,32.203728c8.86113,10.56031 24.728802,11.946541 35.289112,3.085396c10.560295,-8.861145 11.946526,-24.728813 3.085381,-35.289124c-0.889435,-1.183498 -2.359802,-1.779018 -3.822144,-1.548031c-1.462311,0.230991 -2.677521,1.250732 -3.158882,2.650753c-0.481346,1.400028 -0.150139,2.951447 0.861,4.032837c6.078819,7.24448 5.133423,17.94455 -2.111061,24.023369c-7.244469,6.078865 -17.944538,5.143593 -24.023396,-2.100891c-5.44125,-6.48465 -5.44125,-15.437828 0,-21.922478c1.026077,-1.194027 1.25642,-2.878838 0.588497,-4.30447c-0.667908,-1.425629 -2.10989,-2.326939 -3.684017,-2.302738zm16.088589,-6.62466c-1.066322,0.008301 -2.085213,0.44202 -2.830383,1.204769c-0.745148,0.762791 -1.154968,1.791512 -1.138367,2.857731l0,25.718754c-0.020378,1.442528 0.737488,2.784325 1.98349,3.511559c1.246002,0.727211 2.787018,0.727211 4.03302,0c1.246002,-0.727234 2.003914,-2.069031 1.98349,-3.511559l0,-25.718754c0.016747,-1.077061 -0.40155,-2.11536 -1.160309,-2.879971c-0.758728,-0.764618 -1.793793,-1.190948 -2.870941,-1.182529z"/>
  <path opacity="0.99" fill="#2b0000" stroke-width="24.63224" stroke-linecap="round" stroke-linejoin="round" stroke-miterlimit="4" id="path3224" d="m51.366581,49.92865c-1.17543,0.022308 -2.281551,0.56052 -3.02449,1.471649c-7.83873,9.341831 -7.83873,22.861908 0,32.203728c8.86113,10.56031 24.728802,11.946541 35.289112,3.085396c10.560295,-8.861145 11.946526,-24.728813 3.085381,-35.289124c-0.889435,-1.183498 -2.359802,-1.779018 -3.822144,-1.548031c-1.462311,0.230991 -2.677521,1.250732 -3.158882,2.650753c-0.481346,1.400028 -0.150139,2.95145 0.861,4.032837c6.078819,7.24448 5.133423,17.94455 -2.111061,24.023369c-7.244469,6.078865 -17.944538,5.143593 -24.023396,-2.100883c-5.44125,-6.484657 -5.44125,-15.437832 0,-21.922485c1.026077,-1.194027 1.25642,-2.878838 0.588497,-4.304466c-0.667908,-1.425632 -2.10989,-2.326942 -3.684017,-2.302742zm16.088589,-6.62466c-1.066322,0.008301 -2.085213,0.44202 -2.830383,1.204769c-0.745148,0.762791 -1.154968,1.791512 -1.138367,2.857731l0,25.718754c-0.020378,1.442528 0.737488,2.784325 1.98349,3.511559c1.246002,0.727211 2.787018,0.727211 4.03302,0c1.246002,-0.727234 2.003914,-2.069031 1.98349,-3.511559l0,-25.718754c0.016747,-1.077061 -0.40155,-2.11536 -1.160309,-2.879971c-0.758728,-0.764618 -1.793793,-1.190948 -2.870941,-1.182529z"/>
  <path opacity="0.99" fill="#6b6b6b" stroke-width="0.5" stroke-linecap="round" stroke-linejoin="round" stroke-miterlimit="4" d="m51.366581,49.92865c-1.17543,0.022308 -2.281551,0.56052 -3.02449,1.471649c-7.83873,9.341831 -7.83873,22.861908 0,32.203728c8.86113,10.56031 24.728802,11.946541 35.289112,3.085396c10.560295,-8.861145 11.946526,-24.728813 3.085381,-35.289124c-0.889435,-1.183498 -2.359802,-1.779018 -3.822144,-1.548031c-1.462311,0.230991 -2.677521,1.250732 -3.158882,2.650753c-0.481346,1.400028 -0.150139,2.95145 0.861,4.032837c6.078819,7.24448 5.133423,17.94455 -2.111061,24.023369c-7.244469,6.078865 -17.944538,5.143593 -24.023396,-2.100883c-5.44125,-6.484657 -5.44125,-15.437832 0,-21.922485c1.026077,-1.194027 1.25642,-2.878838 0.588497,-4.304466c-0.667908,-1.425632 -2.10989,-2.326942 -3.684017,-2.302742zm16.088589,-6.62466c-1.066322,0.008301 -2.085213,0.44202 -2.830383,1.204769c-0.745148,0.762791 -1.154968,1.791512 -1.138367,2.857731l0,25.718754c-0.020378,1.442528 0.737488,2.784325 1.98349,3.511559c1.246002,0.727211 2.787018,0.727211 4.03302,0c1.246002,-0.727234 2.003914,-2.069031 1.98349,-3.511559l0,-25.718754c0.016747,-1.077061 -0.40155,-2.11536 -1.160309,-2.879971c-0.758728,-0.764618 -1.793793,-1.190948 -2.870941,-1.182529z" id="path3271"/>
 </g>
</svg>